<?xml version="1.0" encoding="utf-8"?>
<!-- Generator: Adobe Illustrator 17.0.0, SVG Export Plug-In . SVG Version: 6.00 Build 0)  -->
<!DOCTYPE svg PUBLIC "-//W3C//DTD SVG 1.1//EN" "http://www.w3.org/Graphics/SVG/1.1/DTD/svg11.dtd">
<svg version="1.1" id="Calque_1" xmlns="http://www.w3.org/2000/svg" xmlns:xlink="http://www.w3.org/1999/xlink" x="0px" y="0px"
	 width="275.375px" height="103.25px" viewBox="0 0 275.375 103.25" enable-background="new 0 0 275.375 103.25"
	 xml:space="preserve">
<path fill="#383838" d="M80.082,39.068C64.463,30.148,51.789,18.061,42.389,4.082L0,28.819c13.634,21.16,32.41,39.45,55.779,52.798
	c76.674,43.794,174.053,18.056,219.244-57.307L232.461,0C200.706,51.867,133.256,69.44,80.082,39.068z"/>
<g>
	<g>
		<path fill="#4CD964" d="M213.075,71.873l-9.394-19.24l-6.871,3.354l-1.912-3.917l18.402-8.984l1.913,3.917l-6.855,3.347
			l9.392,19.24L213.075,71.873z"/>
		<path fill="#4CD964" d="M195.075,70.042l5.287-0.241c0.246,2.906-0.241,5.312-1.457,7.213c-1.217,1.902-3.122,3.331-5.718,4.287
			c-3.211,1.182-6.255,1.056-9.13-0.377c-2.875-1.434-5.013-4.052-6.412-7.858c-1.482-4.025-1.593-7.534-0.334-10.525
			c1.259-2.992,3.583-5.111,6.97-6.357c2.958-1.089,5.683-1.099,8.174-0.03c1.479,0.629,2.851,1.81,4.113,3.543l-4.408,2.934
			c-0.747-1.148-1.708-1.918-2.883-2.311s-2.411-0.349-3.708,0.128c-1.792,0.66-3.011,1.838-3.653,3.536
			c-0.643,1.697-0.434,3.987,0.628,6.868c1.124,3.058,2.476,5.033,4.053,5.926c1.577,0.893,3.245,1.016,5.006,0.368
			c1.297-0.477,2.262-1.3,2.893-2.469S195.32,71.963,195.075,70.042z"/>
		<path fill="#4CD964" d="M176.843,86.996l-5.621,0.661l-2.918-5.55l-10.231,1.204l-1.428,6.062l-5.482,0.645l6.958-26.766
			l5.465-0.643L176.843,86.996z M166.138,77.99l-4.645-9.082l-2.339,9.904L166.138,77.99z"/>
		<path fill="#4CD964" d="M136.237,90.685l-0.068-21.41l-7.646,0.024l-0.015-4.359l20.479-0.065l0.014,4.359l-7.629,0.024
			l0.068,21.41L136.237,90.685z"/>
		<path fill="#4CD964" d="M103.192,87.085l4.264-25.414l4.992,0.837l7.554,18.717l2.848-16.972l4.768,0.8l-4.264,25.414
			l-5.148-0.864l-7.466-18.292l-2.779,16.573L103.192,87.085z"/>
		<path fill="#4CD964" d="M77.227,64.811c0.998-2.428,2.197-4.316,3.602-5.666c1.041-0.991,2.229-1.776,3.563-2.356
			c1.335-0.58,2.655-0.873,3.963-0.88c1.744-0.019,3.585,0.371,5.525,1.168c3.512,1.443,5.875,3.687,7.087,6.732
			c1.213,3.045,1.022,6.508-0.572,10.388c-1.581,3.848-3.865,6.429-6.851,7.742s-6.229,1.25-9.729-0.188
			c-3.544-1.457-5.918-3.696-7.121-6.718C75.491,72.012,75.668,68.605,77.227,64.811z M82.253,66.686
			c-1.109,2.699-1.328,5.001-0.653,6.906c0.674,1.905,1.971,3.252,3.89,4.04c1.918,0.789,3.776,0.745,5.574-0.131
			c1.799-0.877,3.266-2.697,4.401-5.461c1.122-2.731,1.361-5.015,0.716-6.852c-0.646-1.836-1.96-3.162-3.943-3.977
			s-3.862-0.792-5.635,0.069C84.83,62.142,83.379,63.945,82.253,66.686z"/>
		<path fill="#4CD964" d="M66.845,62.908l3.919,3.557c-1.875,2.234-3.915,3.597-6.119,4.088c-2.204,0.491-4.563,0.161-7.076-0.993
			c-3.111-1.426-5.181-3.661-6.209-6.704c-1.027-3.044-0.697-6.408,0.993-10.094c1.788-3.898,4.183-6.464,7.186-7.699
			c3.002-1.233,6.144-1.099,9.424,0.406c2.866,1.313,4.806,3.228,5.818,5.742c0.606,1.49,0.745,3.294,0.419,5.413l-5.195-1.028
			c0.279-1.342,0.142-2.565-0.415-3.671c-0.556-1.106-1.463-1.947-2.719-2.524c-1.737-0.796-3.432-0.819-5.085-0.068
			c-1.652,0.75-3.118,2.521-4.397,5.313c-1.359,2.961-1.792,5.314-1.304,7.06c0.488,1.745,1.585,3.009,3.289,3.79
			c1.257,0.577,2.521,0.673,3.794,0.289C64.44,65.401,65.665,64.443,66.845,62.908z"/>
	</g>
</g>
</svg>
