<?xml version="1.0" encoding="utf-8"?>
<!-- Generator: Adobe Illustrator 17.0.0, SVG Export Plug-In . SVG Version: 6.00 Build 0)  -->
<!DOCTYPE svg PUBLIC "-//W3C//DTD SVG 1.1//EN" "http://www.w3.org/Graphics/SVG/1.1/DTD/svg11.dtd">
<svg version="1.1" id="Calque_1" xmlns="http://www.w3.org/2000/svg" xmlns:xlink="http://www.w3.org/1999/xlink" x="0px" y="0px"
	 width="163px" height="245.833px" viewBox="0 0 163 245.833" enable-background="new 0 0 163 245.833" xml:space="preserve">
<path fill="#383838" d="M21.903,81.675c-30.142,52.772-27.338,115.349,1.904,163.972l42.329-24.702
	c-20.731-33.999-22.832-77.944-1.685-114.968C85.362,69.367,123.649,48.897,163,49.009L162.772,0
	C106.503-0.017,51.808,29.317,21.903,81.675z"/>
<g>
	<g>
		<path fill="#4CD964" d="M39.55,159.553l-26.28,3.357l0.57-5.294l18.016-1.968L14.76,149.07l0.663-6.152l18.38-2.564l-17.473-5.859
			l0.561-5.208l24.951,8.98l-0.591,5.487l-19.704,3.041l18.607,7.148L39.55,159.553z"/>
		<path fill="#4CD964" d="M31.05,127.677c-2.482-0.854-4.438-1.94-5.868-3.262c-1.051-0.98-1.905-2.119-2.562-3.417
			s-1.028-2.599-1.112-3.904c-0.121-1.739,0.159-3.601,0.841-5.584c1.233-3.592,3.334-6.082,6.303-7.472
			c2.968-1.391,6.437-1.404,10.404-0.042c3.934,1.354,6.645,3.48,8.132,6.383c1.487,2.902,1.616,6.144,0.386,9.723
			c-1.245,3.624-3.341,6.127-6.287,7.505C38.341,128.985,34.929,129.009,31.05,127.677z M32.625,122.55
			c2.76,0.947,5.071,1.028,6.933,0.243c1.862-0.784,3.13-2.158,3.804-4.12c0.674-1.961,0.521-3.814-0.46-5.557
			c-0.981-1.743-2.884-3.101-5.71-4.072c-2.793-0.96-5.087-1.063-6.882-0.311c-1.795,0.753-3.041,2.143-3.738,4.171
			s-0.563,3.901,0.401,5.62C27.937,120.245,29.822,121.586,32.625,122.55z"/>
		<path fill="#4CD964" d="M52.611,105.616l-22.255-12.99l5.52-9.458c1.389-2.378,2.598-3.989,3.626-4.835
			c1.029-0.844,2.243-1.291,3.644-1.343c1.4-0.051,2.758,0.308,4.074,1.076c1.67,0.975,2.763,2.271,3.277,3.887
			c0.515,1.617,0.344,3.484-0.513,5.604c1.134-0.641,2.225-1.08,3.272-1.317c1.047-0.235,2.75-0.385,5.106-0.448l5.928-0.184
			l-3.137,5.374l-6.739,0.422c-2.404,0.145-3.955,0.297-4.654,0.459c-0.698,0.162-1.27,0.433-1.715,0.811
			c-0.445,0.379-0.968,1.084-1.571,2.116L45.943,95.7l9.291,5.423L52.611,105.616z M42.39,93.626l1.941-3.324
			c1.258-2.155,1.953-3.555,2.083-4.198c0.131-0.643,0.063-1.245-0.206-1.809c-0.268-0.564-0.736-1.041-1.404-1.432
			c-0.749-0.436-1.47-0.589-2.164-0.458s-1.314,0.525-1.861,1.184c-0.263,0.334-0.926,1.413-1.989,3.233l-2.047,3.508L42.39,93.626z
			"/>
		<path fill="#4CD964" d="M65.517,84.312L46.126,67.341l3.427-3.916l8.611,7.536l-1.688-15.446l4.607-5.265l1.162,13.913
			l18.576,2.663l-4.434,5.065l-13.766-2.634l0.462,6.011l5.859,5.129L65.517,84.312z"/>
	</g>
</g>
</svg>
