<?xml version="1.0" encoding="utf-8"?>
<!-- Generator: Adobe Illustrator 17.0.0, SVG Export Plug-In . SVG Version: 6.00 Build 0)  -->
<!DOCTYPE svg PUBLIC "-//W3C//DTD SVG 1.1//EN" "http://www.w3.org/Graphics/SVG/1.1/DTD/svg11.dtd">
<svg version="1.1" id="Calque_1" xmlns="http://www.w3.org/2000/svg" xmlns:xlink="http://www.w3.org/1999/xlink" x="0px" y="0px"
	 width="810px" height="261px" viewBox="0 0 810 261" enable-background="new 0 0 810 261" xml:space="preserve">
<g>
	<path fill="#383838" d="M222.336,131.679c0,52.016-42.318,94.333-94.333,94.333s-94.333-42.318-94.333-94.333
		s42.317-94.333,94.333-94.333v-25c-65.8,0-119.333,53.533-119.333,119.333c0,65.8,53.533,119.333,119.333,119.333
		c65.801,0,119.333-53.533,119.333-119.333H222.336z"/>
	<polygon fill="#4CD964" points="73.164,166.674 90.841,184.352 221.502,53.69 221.502,124.513 246.502,124.513 246.502,11.013 
		137.002,11.013 137.002,36.013 203.825,36.013 	"/>
</g>
<path fill="#383838" d="M764.499,185.433c-8.247-12.694-16.982-23.273-26.203-31.736c-4.341-3.907-10.688-7.866-19.042-11.882
	c22.891-3.145,39.817-10.523,50.778-22.133c10.958-11.608,16.438-25.877,16.438-42.803c0-13.126-3.311-25.116-9.928-35.967
	c-6.619-10.848-15.461-18.416-26.527-22.704c-11.068-4.285-27.236-6.428-48.5-6.428h-81.851h-23.936H476.678h-29.527h-2.697
	l-64.448,173.328c-4.883,13.02-9.17,26.039-12.857,39.059c-3.365-12.15-7.542-25.17-12.532-39.059L292.609,11.779h-34.177
	l92.441,238.59h32.387l63.891-163.177v163.177h148.578h29.469h2.104V144.42h36.618c8.137,0,13.996,0.381,17.577,1.139
	c4.882,1.196,9.683,3.311,14.403,6.347c4.72,3.039,10.063,8.357,16.031,15.95c5.965,7.596,13.561,18.553,22.784,32.876
	l31.574,49.638H806L764.499,185.433z M478.724,39.935h117.004v73.073H478.724V39.935z M478.724,222.213v-81.211h117.004v81.211
	H478.724z M695.168,117.078h-67.866V38.144h75.515c17.684,0,30.622,3.637,38.816,10.904c8.19,7.27,12.288,16.547,12.288,27.83
	c0,7.705-2.116,14.838-6.347,21.402c-4.231,6.566-10.416,11.338-18.554,14.321C720.883,115.587,709.596,117.078,695.168,117.078z"/>
</svg>
