<?xml version="1.0" encoding="utf-8"?>
<!-- Generator: Adobe Illustrator 17.0.0, SVG Export Plug-In . SVG Version: 6.00 Build 0)  -->
<!DOCTYPE svg PUBLIC "-//W3C//DTD SVG 1.1//EN" "http://www.w3.org/Graphics/SVG/1.1/DTD/svg11.dtd">
<svg version="1.1" id="Calque_1" xmlns="http://www.w3.org/2000/svg" xmlns:xlink="http://www.w3.org/1999/xlink" x="0px" y="0px"
	 width="157px" height="241px" viewBox="0 0 157 241" enable-background="new 0 0 157 241" xml:space="preserve">
<path fill="#383838" d="M0.228,49.046c17.257,0.816,34.587,5.613,50.618,14.769c53.756,30.704,72.716,98.866,42.806,152.855
	l42.549,24.302c43.331-77.49,16.203-175.581-61.052-219.706C51.366,7.683,25.592,0.799,0,0L0.228,49.046z"/>
<g>
	<g>
		<path fill="#4CD964" d="M77.659,71.201l-4.538-3.382l1.693-6.038l-8.259-6.155l-5.203,3.423l-4.426-3.299l23.446-14.665
			l4.412,3.287L77.659,71.201z M76.07,57.302l2.867-9.789L70.433,53.1L76.07,57.302z"/>
		<path fill="#4CD964" d="M97.746,55.1l6.963,7.589c1.379,1.504,2.344,2.681,2.896,3.534c0.552,0.853,0.896,1.753,1.034,2.7
			c0.138,0.949,0.055,1.919-0.25,2.914c-0.304,0.995-0.866,1.869-1.687,2.621c-0.89,0.815-1.926,1.325-3.107,1.526
			c-1.183,0.203-2.336,0.063-3.46-0.417c0.725,1.466,0.967,2.883,0.726,4.248c-0.241,1.367-0.91,2.554-2.007,3.56
			c-0.864,0.792-1.888,1.362-3.072,1.709s-2.34,0.397-3.465,0.15c-1.126-0.248-2.212-0.83-3.259-1.746
			c-0.656-0.576-2.113-2.077-4.372-4.505l-5.93-6.464L97.746,55.1z M90.551,68.761l-5.077,4.658l3.256,3.55
			c1.268,1.381,2.11,2.222,2.529,2.522c0.626,0.475,1.305,0.707,2.035,0.697c0.729-0.011,1.432-0.324,2.104-0.942
			c0.571-0.522,0.928-1.104,1.071-1.746c0.144-0.64,0.066-1.305-0.231-1.994c-0.298-0.689-1.247-1.906-2.848-3.65L90.551,68.761z
			 M98.103,61.833l-4.392,4.027l2.306,2.513c1.371,1.494,2.244,2.403,2.62,2.726c0.68,0.586,1.38,0.893,2.1,0.924
			c0.721,0.031,1.387-0.235,2-0.797c0.587-0.538,0.916-1.138,0.986-1.798c0.069-0.661-0.149-1.347-0.658-2.058
			c-0.306-0.419-1.286-1.531-2.941-3.335L98.103,61.833z"/>
		<path fill="#4CD964" d="M105.646,83.495c2.243-1.362,4.33-2.17,6.261-2.424c1.425-0.181,2.848-0.109,4.266,0.216
			c1.417,0.324,2.654,0.872,3.712,1.642c1.414,1.02,2.667,2.426,3.756,4.218c1.971,3.245,2.542,6.453,1.712,9.624
			c-0.83,3.171-3.037,5.846-6.622,8.024c-3.557,2.16-6.925,2.884-10.106,2.17c-3.184-0.713-5.757-2.687-7.723-5.921
			c-1.989-3.275-2.572-6.486-1.749-9.632C99.976,88.264,102.14,85.625,105.646,83.495z M108.58,87.987
			c-2.495,1.514-4.035,3.24-4.622,5.173s-0.343,3.786,0.734,5.559s2.6,2.839,4.567,3.201c1.967,0.361,4.229-0.234,6.781-1.786
			c2.524-1.533,4.07-3.231,4.641-5.091c0.568-1.862,0.297-3.709-0.815-5.541c-1.113-1.833-2.64-2.929-4.578-3.287
			C113.349,85.856,111.113,86.447,108.58,87.987z"/>
		<path fill="#4CD964" d="M133.024,105.365l1.773,4.892l-13.122,4.755c-2.082,0.756-3.41,1.305-3.982,1.65
			c-0.916,0.568-1.531,1.355-1.847,2.361s-0.225,2.191,0.271,3.557c0.502,1.389,1.165,2.333,1.988,2.832
			c0.823,0.5,1.674,0.671,2.553,0.515c0.878-0.156,2.275-0.582,4.192-1.276l13.402-4.858l1.773,4.891l-12.726,4.613
			c-2.908,1.055-5.011,1.668-6.308,1.838c-1.297,0.171-2.486,0.052-3.57-0.36c-1.084-0.411-2.088-1.123-3.009-2.134
			c-0.921-1.012-1.729-2.478-2.424-4.395c-0.839-2.313-1.208-4.165-1.107-5.554c0.102-1.389,0.452-2.586,1.056-3.589
			c0.602-1.003,1.331-1.786,2.188-2.345c1.272-0.823,3.264-1.725,5.975-2.708L133.024,105.365z"/>
		<path fill="#4CD964" d="M117.787,143.514l21.092-3.676l-1.313-7.533l4.295-0.748l3.516,20.174l-4.294,0.749l-1.311-7.516
			l-21.093,3.676L117.787,143.514z"/>
	</g>
</g>
</svg>
