<?xml version="1.0" encoding="utf-8"?>
<!-- Generator: Adobe Illustrator 17.0.0, SVG Export Plug-In . SVG Version: 6.00 Build 0)  -->
<!DOCTYPE svg PUBLIC "-//W3C//DTD SVG 1.1//EN" "http://www.w3.org/Graphics/SVG/1.1/DTD/svg11.dtd">
<svg version="1.1" id="Capa_1" xmlns="http://www.w3.org/2000/svg" xmlns:xlink="http://www.w3.org/1999/xlink" x="0px" y="0px"
	 width="618px" height="616px" viewBox="0 0 618 616" enable-background="new 0 0 618 616" xml:space="preserve">
<g>
	<path fill="#FFFFFF" d="M472.213,172.268c-12.615,0-22.895-10.28-22.895-22.895v-45.791c0-12.615,10.28-22.895,22.895-22.895
		h45.791c12.615,0,22.895,10.28,22.895,22.895v45.791c0,12.615-10.28,22.895-22.895,22.895H472.213z"/>
	<path fill="#FFFFFF" d="M311.945,222.363c-16.622,0-31.962,4.877-45.173,12.89c4.121-1.282,8.403-2.129,12.913-2.129
		c24.452,0,44.257,19.805,44.257,44.28c0,24.406-19.805,44.257-44.257,44.257s-44.257-19.827-44.257-44.257
		c0-4.556,0.893-8.838,2.152-12.936c-8.059,13.211-12.913,28.551-12.913,45.173c0,48.241,39.037,87.3,87.3,87.3
		c48.195,0,87.3-39.037,87.3-87.3S360.14,222.363,311.945,222.363z"/>
	<g>
		<path fill="#FFFFFF" d="M311.945,172.268c75.852,0,137.372,61.497,137.372,137.372s-61.543,137.372-137.372,137.372
			c-75.852,0-137.372-61.497-137.372-137.372S236.093,172.268,311.945,172.268 M311.945,126.477
			c-100.992,0-183.163,82.172-183.163,183.163s82.172,183.163,183.163,183.163s183.163-82.172,183.163-183.163
			S412.937,126.477,311.945,126.477L311.945,126.477z"/>
	</g>
	<path fill="#FFFFFF" d="M497.97,12H125.92C64.263,12,14.305,61.958,14.305,123.615v372.05c0,61.657,49.958,111.615,111.615,111.615
		h372.05c61.657,0,111.615-49.958,111.615-111.615v-372.05C609.585,61.958,559.627,12,497.97,12z M563.794,218.058H414.127
		c21.819,24.338,35.19,56.346,35.19,91.582c0,75.875-61.543,137.372-137.372,137.372c-75.852,0-137.372-61.497-137.372-137.372
		c0-35.236,13.371-67.267,35.19-91.582H60.096v-94.443c0-36.289,29.535-65.824,65.824-65.824h372.05
		c36.312,0,65.824,29.535,65.824,65.824L563.794,218.058L563.794,218.058z"/>
</g>
</svg>
